<svg width="33" height="33" viewBox="0 0 33 33" fill="none" xmlns="http://www.w3.org/2000/svg">
<g clip-path="url(#clip0_7_34)">
<path d="M16.5 0C13.2366 0 10.0465 0.967708 7.3331 2.78075C4.61969 4.59379 2.50484 7.17074 1.256 10.1857C0.00714922 13.2007 -0.319606 16.5183 0.31705 19.719C0.953706 22.9197 2.52518 25.8597 4.83275 28.1673C7.14031 30.4748 10.0803 32.0463 13.281 32.683C16.4817 33.3196 19.7993 32.9929 22.8143 31.744C25.8293 30.4952 28.4062 28.3803 30.2193 25.6669C32.0323 22.9535 33 19.7634 33 16.5C32.9953 12.1254 31.2554 7.93129 28.162 4.83796C25.0687 1.74464 20.8746 0.00473149 16.5 0ZM16.5 30.25C13.7805 30.25 11.1221 29.4436 8.86092 27.9327C6.59974 26.4218 4.83737 24.2744 3.79666 21.7619C2.75596 19.2494 2.48366 16.4847 3.01421 13.8175C3.54476 11.1503 4.85432 8.70025 6.77729 6.77728C8.70026 4.85431 11.1503 3.54475 13.8175 3.0142C16.4848 2.48366 19.2494 2.75595 21.7619 3.79666C24.2744 4.83736 26.4218 6.59973 27.9327 8.86091C29.4436 11.1221 30.25 13.7805 30.25 16.5C30.246 20.1455 28.7961 23.6405 26.2183 26.2183C23.6405 28.7961 20.1455 30.246 16.5 30.25ZM23.375 16.5C23.375 16.8647 23.2301 17.2144 22.9723 17.4723C22.7144 17.7301 22.3647 17.875 22 17.875H17.875V22C17.875 22.3647 17.7301 22.7144 17.4723 22.9723C17.2144 23.2301 16.8647 23.375 16.5 23.375C16.1353 23.375 15.7856 23.2301 15.5277 22.9723C15.2699 22.7144 15.125 22.3647 15.125 22V17.875H11C10.6353 17.875 10.2856 17.7301 10.0277 17.4723C9.76987 17.2144 9.62501 16.8647 9.62501 16.5C9.62501 16.1353 9.76987 15.7856 10.0277 15.5277C10.2856 15.2699 10.6353 15.125 11 15.125H15.125V11C15.125 10.6353 15.2699 10.2856 15.5277 10.0277C15.7856 9.76987 16.1353 9.625 16.5 9.625C16.8647 9.625 17.2144 9.76987 17.4723 10.0277C17.7301 10.2856 17.875 10.6353 17.875 11V15.125H22C22.3647 15.125 22.7144 15.2699 22.9723 15.5277C23.2301 15.7856 23.375 16.1353 23.375 16.5Z" fill="black"/>
</g>
<defs>
<clipPath id="clip0_7_34">
<rect width="33" height="33" fill="white"/>
</clipPath>
</defs>
</svg>
