<svg width="20" height="21" viewBox="0 0 20 21" fill="none" xmlns="http://www.w3.org/2000/svg">
<g clip-path="url(#clip0_212_184)">
<path d="M6.66667 0.5C3.90917 0.5 1.66667 2.7425 1.66667 5.5C1.66667 8.2575 3.90917 10.5 6.66667 10.5C9.42417 10.5 11.6667 8.2575 11.6667 5.5C11.6667 2.7425 9.42417 0.5 6.66667 0.5ZM6.66667 8.83333C4.82833 8.83333 3.33333 7.33833 3.33333 5.5C3.33333 3.66167 4.82833 2.16667 6.66667 2.16667C8.505 2.16667 10 3.66167 10 5.5C10 7.33833 8.505 8.83333 6.66667 8.83333ZM3.75 12.1667H8.33333V13.8333H3.75C2.60167 13.8333 1.66667 14.7683 1.66667 15.9167V20.5H0V15.9167C0 13.8492 1.6825 12.1667 3.75 12.1667ZM18.75 15.5C18.75 15.1167 18.6758 14.7542 18.5683 14.4058L19.7483 13.7258L18.9167 12.2817L17.7408 12.9592C17.2367 12.4158 16.58 12.0217 15.8333 11.8508V10.5H14.1667V11.8508C13.42 12.0217 12.7625 12.4158 12.2592 12.9592L11.0833 12.2817L10.2517 13.7258L11.4317 14.4058C11.3242 14.7542 11.25 15.1167 11.25 15.5C11.25 15.8833 11.3242 16.2458 11.4317 16.5942L10.2517 17.2742L11.0833 18.7183L12.2592 18.0408C12.7633 18.5842 13.42 18.9783 14.1667 19.1492V20.5H15.8333V19.1492C16.58 18.9783 17.2375 18.5842 17.7408 18.0408L18.9167 18.7183L19.7483 17.2742L18.5683 16.5942C18.6758 16.2458 18.75 15.8833 18.75 15.5ZM15 17.5833C13.8517 17.5833 12.9167 16.6483 12.9167 15.5C12.9167 14.3517 13.8517 13.4167 15 13.4167C16.1483 13.4167 17.0833 14.3517 17.0833 15.5C17.0833 16.6483 16.1483 17.5833 15 17.5833Z" fill="white"/>
</g>
<defs>
<clipPath id="clip0_212_184">
<rect width="20" height="20" fill="white" transform="translate(0 0.5)"/>
</clipPath>
</defs>
</svg>
