<svg width="22" height="23" viewBox="0 0 22 23" fill="none" xmlns="http://www.w3.org/2000/svg">
<path d="M6.41667 9.05556C6.17355 9.05556 5.94039 9.15213 5.76849 9.32404C5.59658 9.49595 5.5 9.72911 5.5 9.97222C5.5 10.2153 5.59658 10.4485 5.76849 10.6204C5.94039 10.7923 6.17355 10.8889 6.41667 10.8889C6.65978 10.8889 6.89294 10.7923 7.06485 10.6204C7.23676 10.4485 7.33333 10.2153 7.33333 9.97222C7.33333 9.72911 7.23676 9.49595 7.06485 9.32404C6.89294 9.15213 6.65978 9.05556 6.41667 9.05556ZM5.5 16.6944C5.5 16.4513 5.59658 16.2182 5.76849 16.0463C5.94039 15.8744 6.17355 15.7778 6.41667 15.7778C6.65978 15.7778 6.89294 15.8744 7.06485 16.0463C7.23676 16.2182 7.33333 16.4513 7.33333 16.6944C7.33333 16.9376 7.23676 17.1707 7.06485 17.3426C6.89294 17.5145 6.65978 17.6111 6.41667 17.6111C6.17355 17.6111 5.94039 17.5145 5.76849 17.3426C5.59658 17.1707 5.5 16.9376 5.5 16.6944ZM0 4.47222C0 3.41872 0.418501 2.40837 1.16344 1.66344C1.90837 0.918501 2.91872 0.5 3.97222 0.5H18.0278C19.0813 0.5 20.0916 0.918501 20.8366 1.66344C21.5815 2.40837 22 3.41872 22 4.47222V18.5278C22 19.5813 21.5815 20.5916 20.8366 21.3366C20.0916 22.0815 19.0813 22.5 18.0278 22.5H3.97222C2.91872 22.5 1.90837 22.0815 1.16344 21.3366C0.418501 20.5916 0 19.5813 0 18.5278V4.47222ZM3.66667 9.97222C3.66667 10.3334 3.7378 10.691 3.876 11.0246C4.0142 11.3582 4.21676 11.6614 4.47212 11.9168C4.72748 12.1721 5.03064 12.3747 5.36429 12.5129C5.69793 12.6511 6.05553 12.7222 6.41667 12.7222C6.7778 12.7222 7.1354 12.6511 7.46905 12.5129C7.80269 12.3747 8.10585 12.1721 8.36121 11.9168C8.61657 11.6614 8.81913 11.3582 8.95733 11.0246C9.09553 10.691 9.16667 10.3334 9.16667 9.97222C9.16667 9.24288 8.87693 8.5434 8.36121 8.02768C7.84548 7.51195 7.14601 7.22222 6.41667 7.22222C5.68732 7.22222 4.98785 7.51195 4.47212 8.02768C3.9564 8.5434 3.66667 9.24288 3.66667 9.97222ZM6.41667 13.9444C5.68732 13.9444 4.98785 14.2342 4.47212 14.7499C3.9564 15.2656 3.66667 15.9651 3.66667 16.6944C3.66667 17.4238 3.9564 18.1233 4.47212 18.639C4.98785 19.1547 5.68732 19.4444 6.41667 19.4444C7.14601 19.4444 7.84548 19.1547 8.36121 18.639C8.87693 18.1233 9.16667 17.4238 9.16667 16.6944C9.16667 15.9651 8.87693 15.2656 8.36121 14.7499C7.84548 14.2342 7.14601 13.9444 6.41667 13.9444ZM11 9.97222C11 10.4782 11.4107 10.8889 11.9167 10.8889H17.4167C17.6598 10.8889 17.8929 10.7923 18.0648 10.6204C18.2368 10.4485 18.3333 10.2153 18.3333 9.97222C18.3333 9.72911 18.2368 9.49595 18.0648 9.32404C17.8929 9.15213 17.6598 9.05556 17.4167 9.05556H11.9167C11.6736 9.05556 11.4404 9.15213 11.2685 9.32404C11.0966 9.49595 11 9.72911 11 9.97222ZM11.9167 15.7778C11.6736 15.7778 11.4404 15.8744 11.2685 16.0463C11.0966 16.2182 11 16.4513 11 16.6944C11 16.9376 11.0966 17.1707 11.2685 17.3426C11.4404 17.5145 11.6736 17.6111 11.9167 17.6111H17.4167C17.6598 17.6111 17.8929 17.5145 18.0648 17.3426C18.2368 17.1707 18.3333 16.9376 18.3333 16.6944C18.3333 16.4513 18.2368 16.2182 18.0648 16.0463C17.8929 15.8744 17.6598 15.7778 17.4167 15.7778H11.9167ZM3.66667 4.47222C3.66667 4.97822 4.07733 5.38889 4.58333 5.38889H17.4167C17.6598 5.38889 17.8929 5.29231 18.0648 5.1204C18.2368 4.94849 18.3333 4.71534 18.3333 4.47222C18.3333 4.22911 18.2368 3.99595 18.0648 3.82404C17.8929 3.65213 17.6598 3.55556 17.4167 3.55556H4.58333C4.34022 3.55556 4.10706 3.65213 3.93515 3.82404C3.76324 3.99595 3.66667 4.22911 3.66667 4.47222Z" fill="white"/>
</svg>
