<svg width="20" height="21" viewBox="0 0 20 21" fill="none" xmlns="http://www.w3.org/2000/svg">
<g clip-path="url(#clip0_212_195)">
<path d="M18.5 2.30239C18.0315 1.91066 17.4826 1.62688 16.8921 1.47119C16.3016 1.3155 15.684 1.29173 15.0833 1.40155L11.8983 1.97989C11.163 2.11492 10.4944 2.49324 10 3.05405C9.5043 2.49227 8.8338 2.11387 8.09667 1.97989L4.91667 1.40155C4.31596 1.29163 3.69844 1.31509 3.10781 1.47028C2.51718 1.62547 1.96789 1.90859 1.4988 2.2996C1.02972 2.6906 0.652322 3.17994 0.393318 3.73297C0.134315 4.28601 4.0677e-05 4.88921 0 5.49989L0 14.4941C4.78799e-05 15.4697 0.342481 16.4144 0.967611 17.1635C1.59274 17.9126 2.46092 18.4186 3.42083 18.5932L8.65917 19.5457C9.5458 19.7068 10.4542 19.7068 11.3408 19.5457L16.5833 18.5932C17.5425 18.4177 18.4097 17.9114 19.034 17.1624C19.6583 16.4134 20.0001 15.4691 20 14.4941V5.49989C20.0004 4.88942 19.8662 4.28638 19.6069 3.73371C19.3476 3.18104 18.9697 2.69233 18.5 2.30239ZM9.16667 17.9399C9.09667 17.9299 9.02667 17.9182 8.95667 17.9057L3.71917 16.9541C3.14314 16.8493 2.62216 16.5456 2.24707 16.096C1.87198 15.6465 1.66658 15.0795 1.66667 14.4941V5.49989C1.66667 4.83684 1.93006 4.20096 2.3989 3.73212C2.86774 3.26328 3.50363 2.99989 4.16667 2.99989C4.31758 3.00025 4.46816 3.01391 4.61667 3.04072L7.8 3.62405C8.18301 3.69414 8.52939 3.89611 8.77904 4.19492C9.02868 4.49373 9.16582 4.87052 9.16667 5.25989V17.9399ZM18.3333 14.4941C18.3334 15.0795 18.128 15.6465 17.7529 16.096C17.3778 16.5456 16.8569 16.8493 16.2808 16.9541L11.0433 17.9057C10.9733 17.9182 10.9033 17.9299 10.8333 17.9399V5.25989C10.8333 4.86956 10.9702 4.4916 11.2203 4.19189C11.4703 3.89219 11.8176 3.68975 12.2017 3.61989L15.3858 3.03655C15.7464 2.97094 16.117 2.98543 16.4714 3.07898C16.8258 3.17253 17.1553 3.34285 17.4365 3.57789C17.7178 3.81293 17.9439 4.10693 18.0988 4.43907C18.2538 4.77121 18.3339 5.13337 18.3333 5.49989V14.4941Z" fill="white"/>
</g>
<defs>
<clipPath id="clip0_212_195">
<rect width="20" height="20" fill="white" transform="translate(0 0.5)"/>
</clipPath>
</defs>
</svg>
