<svg width="33" height="33" viewBox="0 0 33 33" fill="none" xmlns="http://www.w3.org/2000/svg">
<g clip-path="url(#clip0_7_25)">
<path d="M25.652 1.27875L8.88803 18.0427C8.24775 18.6796 7.74015 19.4371 7.39461 20.2714C7.04908 21.1057 6.87248 22.0003 6.87503 22.9034V24.75C6.87503 25.1147 7.01989 25.4644 7.27776 25.7223C7.53562 25.9801 7.88535 26.125 8.25003 26.125H10.0967C10.9997 26.1275 11.8943 25.9509 12.7286 25.6054C13.5629 25.2599 14.3205 24.7523 14.9573 24.112L31.7213 7.348C32.5248 6.54248 32.9761 5.45115 32.9761 4.31337C32.9761 3.1756 32.5248 2.08426 31.7213 1.27875C30.9041 0.497603 29.8171 0.0616674 28.6867 0.0616674C27.5562 0.0616674 26.4692 0.497603 25.652 1.27875ZM29.777 5.40375L13.013 22.1677C12.2377 22.9383 11.1898 23.3721 10.0967 23.375H9.62503V22.9034C9.62789 21.8102 10.0617 20.7623 10.8323 19.987L27.5963 3.223C27.89 2.94244 28.2805 2.78588 28.6867 2.78588C29.0928 2.78588 29.4833 2.94244 29.777 3.223C30.0657 3.51246 30.2278 3.90457 30.2278 4.31337C30.2278 4.72217 30.0657 5.11429 29.777 5.40375Z" fill="black"/>
<path d="M31.625 12.3461C31.2603 12.3461 30.9106 12.491 30.6527 12.7489C30.3949 13.0067 30.25 13.3565 30.25 13.7211V20.625H24.75C23.656 20.625 22.6068 21.0596 21.8332 21.8332C21.0596 22.6068 20.625 23.656 20.625 24.75V30.25H6.875C5.78098 30.25 4.73177 29.8154 3.95818 29.0418C3.1846 28.2682 2.75 27.219 2.75 26.125V6.875C2.75 5.78098 3.1846 4.73177 3.95818 3.95818C4.73177 3.1846 5.78098 2.75 6.875 2.75H19.3078C19.6724 2.75 20.0222 2.60513 20.28 2.34727C20.5379 2.08941 20.6828 1.73967 20.6828 1.375C20.6828 1.01033 20.5379 0.660591 20.28 0.402728C20.0222 0.144866 19.6724 0 19.3078 0L6.875 0C5.05231 0.0021833 3.30489 0.727213 2.01605 2.01605C0.727213 3.30489 0.0021833 5.05231 0 6.875L0 26.125C0.0021833 27.9477 0.727213 29.6951 2.01605 30.984C3.30489 32.2728 5.05231 32.9978 6.875 33H22.4716C23.3749 33.0026 24.2697 32.826 25.1042 32.4805C25.9388 32.1349 26.6965 31.6273 27.3336 30.987L30.9856 27.3323C31.626 26.6954 32.1338 25.938 32.4796 25.1037C32.8253 24.2693 33.0022 23.3748 33 22.4716V13.7211C33 13.3565 32.8551 13.0067 32.5973 12.7489C32.3394 12.491 31.9897 12.3461 31.625 12.3461ZM25.3894 29.0428C24.8366 29.5941 24.1377 29.9758 23.375 30.1428V24.75C23.375 24.3853 23.5199 24.0356 23.7777 23.7777C24.0356 23.5199 24.3853 23.375 24.75 23.375H30.1469C29.9768 24.1361 29.5955 24.8338 29.0469 25.388L25.3894 29.0428Z" fill="black"/>
</g>
<defs>
<clipPath id="clip0_7_25">
<rect width="33" height="33" fill="white"/>
</clipPath>
</defs>
</svg>
