<svg width="20" height="21" viewBox="0 0 20 21" fill="none" xmlns="http://www.w3.org/2000/svg">
<path d="M20.0001 20.5L16.0001 16.5H6.00012C5.45012 16.5 4.97929 16.3042 4.58762 15.9125C4.19596 15.5208 4.00012 15.05 4.00012 14.5V13.5H15.0001C15.5501 13.5 16.021 13.3042 16.4126 12.9125C16.8043 12.5208 17.0001 12.05 17.0001 11.5V4.5H18.0001C18.5501 4.5 19.021 4.69583 19.4126 5.0875C19.8043 5.47917 20.0001 5.95 20.0001 6.5V20.5ZM2.00012 10.675L3.17512 9.5H13.0001V2.5H2.00012V10.675ZM0.00012207 15.5V2.5C0.00012207 1.95 0.195955 1.47917 0.587622 1.0875C0.979289 0.695833 1.45012 0.5 2.00012 0.5H13.0001C13.5501 0.5 14.021 0.695833 14.4126 1.0875C14.8043 1.47917 15.0001 1.95 15.0001 2.5V9.5C15.0001 10.05 14.8043 10.5208 14.4126 10.9125C14.021 11.3042 13.5501 11.5 13.0001 11.5H4.00012L0.00012207 15.5Z" fill="white"/>
</svg>
