<svg width="20" height="21" viewBox="0 0 20 21" fill="none" xmlns="http://www.w3.org/2000/svg">
<g clip-path="url(#clip0_212_165)">
<path d="M5.83333 12.1667C7.67167 12.1667 9.16667 10.6717 9.16667 8.83333C9.16667 6.995 7.67167 5.5 5.83333 5.5C3.995 5.5 2.5 6.995 2.5 8.83333C2.5 10.6717 3.995 12.1667 5.83333 12.1667ZM5.83333 7.16667C6.7525 7.16667 7.5 7.91417 7.5 8.83333C7.5 9.7525 6.7525 10.5 5.83333 10.5C4.91417 10.5 4.16667 9.7525 4.16667 8.83333C4.16667 7.91417 4.91417 7.16667 5.83333 7.16667ZM11.6667 16.3333V20.5H10V16.3333C10 15.8733 9.62583 15.5 9.16667 15.5H2.5C2.04083 15.5 1.66667 15.8733 1.66667 16.3333V20.5H0V16.3333C0 14.955 1.12167 13.8333 2.5 13.8333H9.16667C10.545 13.8333 11.6667 14.955 11.6667 16.3333ZM20 3V15.5H13.2492C13.1233 14.88 12.8483 14.32 12.4808 13.8333H12.5V12.1667H16.6667V13.8333H18.3333V3C18.3333 2.54 17.9592 2.16667 17.5 2.16667H6.66667C6.2075 2.16667 5.83333 2.54 5.83333 3V3.83333C5.24833 3.83333 4.68833 3.93917 4.16667 4.12417V3C4.16667 2.98583 4.16667 2.97083 4.1675 2.95667C4.19083 1.59833 5.3025 0.5 6.66667 0.5H17.5C18.8783 0.5 20 1.62167 20 3Z" fill="white"/>
</g>
<defs>
<clipPath id="clip0_212_165">
<rect width="20" height="20" fill="white" transform="translate(0 0.5)"/>
</clipPath>
</defs>
</svg>
