<svg width="24" height="25" viewBox="0 0 24 25" fill="none" xmlns="http://www.w3.org/2000/svg">
<g clip-path="url(#clip0_212_177)">
<path d="M20 22.0001V24.5001H18V22.0001C18 20.6221 16.878 19.5001 15.5 19.5001H8.50001C7.12201 19.5001 6.00001 20.6221 6.00001 22.0001V24.5001H4.00001V22.0001C4.00001 19.5191 6.01901 17.5001 8.50001 17.5001H15.5C17.981 17.5001 20 19.5191 20 22.0001ZM22 5.0001V12.5001H20V5.9711L18 6.9711V9.5001C18 12.8091 15.309 15.5001 12 15.5001C8.69101 15.5001 6.00001 12.8091 6.00001 9.5001V6.9711L2.05701 5.0001L10.276 0.892102C11.323 0.371102 12.675 0.370102 13.722 0.892102L22 5.0001ZM6.53001 5.0001L11.171 7.3201C11.651 7.5601 12.348 7.5601 12.829 7.3201L17.47 5.0001L12.829 2.6801C12.35 2.4411 11.65 2.4401 11.17 2.6801L6.53001 5.0001ZM16 7.9711L13.724 9.1091C13.201 9.3711 12.6 9.5021 12 9.5021C11.4 9.5021 10.8 9.3711 10.276 9.1091L8.00001 7.9711V9.5001C8.00001 11.7061 9.79401 13.5001 12 13.5001C14.206 13.5001 16 11.7061 16 9.5001V7.9711Z" fill="white"/>
</g>
<defs>
<clipPath id="clip0_212_177">
<rect width="24" height="24" fill="white" transform="translate(0 0.5)"/>
</clipPath>
</defs>
</svg>
