<svg width="20" height="21" viewBox="0 0 20 21" fill="none" xmlns="http://www.w3.org/2000/svg">
<g clip-path="url(#clip0_212_188)">
<path d="M8.96913 10.7992L4.16663 13.8334L6.66663 15.4126V19.2876C6.66663 19.2876 7.61913 20.5001 9.99996 20.5001C12.3808 20.5001 13.3333 19.2876 13.3333 19.2876V15.4126L14.1666 14.8859V18.8326H15.8333V13.8326L11.0308 10.7984C10.4125 10.4067 9.58663 10.4067 8.96913 10.7984V10.7992ZM11.6666 18.4834C11.3425 18.6517 10.805 18.8334 9.99996 18.8334C9.16746 18.8334 8.62079 18.6384 8.29996 18.4659L8.30663 16.4492L8.96829 16.8676C9.27746 17.0634 9.63413 17.1667 9.99913 17.1667C10.3641 17.1667 10.7208 17.0634 11.0291 16.8684L11.6658 16.4667V18.4842L11.6666 18.4834ZM10.14 15.4592C10.0533 15.5126 9.94663 15.5134 9.85996 15.4592L7.28746 13.8342L9.86079 12.2084C9.94746 12.1551 10.0541 12.1542 10.1408 12.2084L12.7133 13.8334L10.14 15.4592Z" fill="white"/>
<path d="M17.5 0.5H2.5C1.12167 0.5 0 1.62167 0 3V18.8333H5V17.1667H1.66667V8H18.3333V17.1667H17.5V18.8333H20V3C20 1.62167 18.8783 0.5 17.5 0.5ZM18.3333 6.33333H1.66667V3C1.66667 2.54083 2.04083 2.16667 2.5 2.16667H17.5C17.96 2.16667 18.3333 2.54083 18.3333 3V6.33333Z" fill="white"/>
<path d="M3.75 5.5C4.44036 5.5 5 4.94036 5 4.25C5 3.55964 4.44036 3 3.75 3C3.05964 3 2.5 3.55964 2.5 4.25C2.5 4.94036 3.05964 5.5 3.75 5.5Z" fill="white"/>
<path d="M7.08337 5.5C7.77373 5.5 8.33337 4.94036 8.33337 4.25C8.33337 3.55964 7.77373 3 7.08337 3C6.39302 3 5.83337 3.55964 5.83337 4.25C5.83337 4.94036 6.39302 5.5 7.08337 5.5Z" fill="white"/>
</g>
<defs>
<clipPath id="clip0_212_188">
<rect width="20" height="20" fill="white" transform="translate(0 0.5)"/>
</clipPath>
</defs>
</svg>
